<?xml version="1.0" standalone="no"?>
<!DOCTYPE svg PUBLIC "-//W3C//DTD SVG 20010904//EN"
 "http://www.w3.org/TR/2001/REC-SVG-20010904/DTD/svg10.dtd">
<svg version="1.0" xmlns="http://www.w3.org/2000/svg"
 width="374.000000pt" height="374.000000pt" viewBox="0 0 374.000000 374.000000"
 preserveAspectRatio="xMidYMid meet">

<g transform="translate(0.000000,374.000000) scale(0.100000,-0.100000)"
fill="#000000" stroke="none">
<path d="M1661 3729 c-443 -47 -903 -288 -1196 -627 -90 -103 -187 -245 -248
-362 -48 -90 -137 -309 -137 -335 0 -13 188 -15 1795 -15 987 0 1795 1 1795 3
0 1 -15 45 -34 97 -292 824 -1100 1330 -1975 1239z"/>
<path d="M56 2328 c-3 -13 -6 -219 -6 -459 0 -456 0 -460 46 -586 l16 -43 429
0 c422 0 429 0 429 -20 0 -20 -7 -20 -421 -20 l-420 0 6 -22 c4 -13 31 -72 60
-133 241 -500 719 -877 1266 -999 796 -177 1612 177 2024 879 58 99 125 238
125 261 0 12 -66 14 -440 14 -433 0 -440 0 -440 20 0 20 7 20 454 20 l455 0 6
53 c3 28 5 277 3 552 l-3 500 -1791 3 -1792 2 -6 -22z m844 -14 c0 -4 -9 -21
-20 -39 -18 -28 -18 -34 -5 -39 13 -5 11 -15 -15 -65 -16 -33 -30 -63 -30 -66
0 -3 24 -5 54 -5 30 0 57 -4 60 -8 3 -5 6 -134 6 -288 l2 -279 -136 -3 -136
-3 0 64 c0 45 5 68 15 77 19 16 22 179 3 198 -9 9 -9 15 0 24 8 8 12 48 12
115 l0 103 55 0 c47 0 55 3 55 19 0 10 3 33 6 50 6 27 4 31 -14 31 -20 0 -21
1 -5 53 8 28 17 55 20 60 5 9 73 10 73 1z m-225 -314 l0 -95 -108 4 c-113 4
-137 -3 -137 -40 0 -30 33 -39 144 -39 l106 0 0 -70 0 -70 -47 0 c-27 -1 -79
-5 -118 -10 -87 -11 -99 -24 -92 -102 l5 -58 -134 0 -134 0 0 290 0 290 258
-2 257 -3 0 -95z m835 -15 l0 -115 -42 0 c-73 0 -73 1 -76 -185 l-3 -165 -135
0 -134 0 0 159 c0 180 -1 182 -79 191 l-46 5 -3 113 -3 112 261 0 260 0 0
-115z m625 33 c6 -42 13 -80 17 -84 11 -10 25 33 33 104 l7 62 39 0 39 0 1
-52 c2 -68 11 -110 26 -115 14 -5 22 20 31 99 l7 63 94 3 94 3 -7 -58 c-11
-100 -46 -486 -46 -505 0 -16 -11 -18 -104 -18 l-105 0 -6 58 c-3 31 -7 63 -8
71 -1 8 -7 16 -14 18 -11 4 -17 -15 -28 -99 l-6 -48 -104 0 -103 0 -6 28 c-3
15 -7 45 -10 67 -6 41 -46 457 -46 476 0 6 37 9 98 7 l97 -3 10 -77z m780 -18
l0 -85 -90 -2 c-121 -4 -137 -8 -133 -36 3 -21 9 -22 113 -27 l110 -5 0 -60 0
-60 -85 3 c-83 4 -140 -8 -140 -27 0 -5 8 -17 17 -26 14 -14 33 -17 112 -14
l96 4 0 -75 0 -75 -208 -3 -207 -2 5 52 c3 29 14 150 26 268 11 118 23 225 26
238 5 22 6 22 182 20 l176 -3 0 -85z m480 76 c43 -18 65 -61 65 -127 0 -48 -3
-55 -42 -92 -31 -30 -38 -42 -28 -45 8 -3 30 -20 48 -38 30 -30 32 -37 32 -99
0 -80 -19 -119 -72 -146 -33 -17 -60 -19 -243 -19 l-205 0 0 290 0 290 205 0
c155 0 214 -3 240 -14z m-2275 -816 c0 -5 -4 -10 -10 -10 -5 0 -10 -16 -10
-35 0 -19 -4 -35 -10 -35 -5 0 -10 16 -10 35 0 19 -4 35 -10 35 -5 0 -10 5
-10 10 0 6 14 10 30 10 17 0 30 -4 30 -10z m136 -2 c9 -14 11 -78 3 -78 -4 0
-9 7 -13 15 -3 8 -10 15 -16 15 -5 0 -10 -7 -10 -15 0 -8 -4 -15 -10 -15 -11
0 -14 73 -3 83 10 11 41 8 49 -5z m144 3 c0 -5 -10 -11 -22 -14 -23 -4 -23 -4
2 -15 17 -7 20 -11 8 -11 -27 -1 -31 -20 -6 -30 21 -9 21 -10 -9 -10 -32 -1
-33 1 -33 37 0 21 3 42 7 45 10 10 53 8 53 -2z m100 -36 c0 -25 -4 -45 -10
-45 -11 0 -14 73 -3 83 11 12 13 8 13 -38z m145 27 c7 19 9 16 12 -21 5 -53
-3 -63 -28 -32 l-19 23 -9 -23 c-8 -20 -10 -16 -10 25 l-1 49 24 -22 23 -22 8
23z m115 -27 c0 -25 -4 -45 -10 -45 -11 0 -14 73 -3 83 11 12 13 8 13 -38z
m145 27 c7 19 9 16 12 -21 5 -53 -3 -63 -28 -32 l-19 23 -9 -23 c-8 -20 -10
-16 -10 25 l-1 49 24 -22 23 -22 8 23z m162 2 c2 -6 -7 -10 -19 -10 -14 1 -24
-6 -26 -18 -5 -22 12 -41 28 -31 9 6 9 9 -1 16 -17 10 -5 23 16 16 8 -4 15
-16 15 -27 0 -16 -6 -20 -34 -20 -33 0 -46 13 -46 45 0 34 57 58 67 29z m263
-35 c0 -41 -14 -53 -23 -19 -3 11 -12 20 -21 20 -9 0 -16 -8 -16 -20 0 -11 -4
-20 -10 -20 -5 0 -10 18 -10 40 0 43 6 49 25 23 13 -18 35 -10 35 13 0 8 5 12
10 9 6 -3 10 -24 10 -46z m102 6 c4 -37 22 -36 26 2 6 50 24 52 20 3 -3 -43
-5 -45 -33 -45 -28 0 -30 2 -33 45 -4 50 14 46 20 -5z m185 37 c6 -4 13 -23
15 -42 3 -33 1 -35 -29 -38 -33 -3 -33 -3 -33 42 0 37 3 46 18 46 9 0 22 -4
29 -8z"/>
<path d="M3187 1983 c-4 -3 -7 -35 -7 -70 0 -49 3 -63 15 -63 8 0 19 9 25 19
26 49 -2 145 -33 114z"/>
<path d="M3176 1686 c-7 -63 0 -88 23 -84 32 6 24 138 -9 138 -4 0 -10 -24
-14 -54z"/>
<path d="M1220 1240 c0 -5 7 -10 15 -10 8 0 15 5 15 10 0 6 -7 10 -15 10 -8 0
-15 -4 -15 -10z"/>
<path d="M2590 1240 c0 -5 5 -10 10 -10 6 0 10 5 10 10 0 6 -4 10 -10 10 -5 0
-10 -4 -10 -10z"/>
<path d="M2585 1211 c-7 -12 12 -24 25 -16 11 7 4 25 -10 25 -5 0 -11 -4 -15
-9z"/>
<path d="M3692 1870 l0 -425 20 90 c17 77 20 126 20 335 0 209 -3 258 -20 335
l-20 90 0 -425z"/>
<path d="M4 1870 c0 -63 1 -89 3 -57 2 31 2 83 0 115 -2 31 -3 5 -3 -58z"/>
</g>
</svg>
